<svg width="64" height="64" viewBox="0 0 64 64" fill="none" xmlns="http://www.w3.org/2000/svg">
<path d="M32.0026 58.6668C46.7302 58.6668 58.6693 46.7278 58.6693 32.0002C58.6693 17.2726 46.7302 5.3335 32.0026 5.3335C17.275 5.3335 5.33594 17.2726 5.33594 32.0002C5.33594 46.7278 17.275 58.6668 32.0026 58.6668Z" stroke="#D4CDFF" stroke-width="4"/>
<path d="M32 16V48M40 25.3333C40 21.6533 36.4187 18.6667 32 18.6667C27.5813 18.6667 24 21.6533 24 25.3333C24 29.0133 27.5813 32 32 32C36.4187 32 40 34.9867 40 38.6667C40 42.3467 36.4187 45.3333 32 45.3333C27.5813 45.3333 24 42.3467 24 38.6667" stroke="#D4CDFF" stroke-width="4" stroke-linecap="round"/>
</svg>
